<?xml version="1.0" encoding="UTF-8"?>
<svg width="15px" height="20px" viewBox="0 0 15 20" version="1.1" xmlns="http://www.w3.org/2000/svg" xmlns:xlink="http://www.w3.org/1999/xlink">
    <!-- Generator: sketchtool 58 (101010) - https://sketch.com -->
    <title>DB9FF70D-1E61-41ED-8944-6BEF536F2705</title>
    <desc>Created with sketchtool.</desc>
    <g id="Web" stroke="none" stroke-width="1" fill="none" fill-rule="evenodd">
        <g id="Sign-Up" transform="translate(-193.000000, -604.000000)" fill="#6648CD" fill-rule="nonzero">
            <g id="Form" transform="translate(165.000000, 465.000000)">
                <g id="Password" transform="translate(0.000000, 114.000000)">
                    <path d="M40.4985709,32.5312643 L40.4985709,30.3125365 C40.4985709,27.4123166 38.1544673,25 35.1860344,25 C32.2567018,25 29.8734979,27.3832039 29.8734979,30.3125365 L29.8734979,32.5321143 C28.8167919,32.6856806 28,33.5888203 28,34.6879416 L28,42.8127225 C28,44.0188383 28.9811617,45 30.1872775,45 L40.1873838,45 C41.3934996,45 42.374662,44.0188383 42.374662,42.8127225 L42.374662,34.6879416 C42.3754916,33.5872478 41.5570195,32.6841166 40.4986772,32.5314768 L40.4985709,32.5312643 Z M31.7486108,30.3125365 C31.7486108,28.4166197 33.2909039,26.8751129 35.1860344,26.8751129 C37.1085139,26.8751129 38.623458,28.4373386 38.623458,30.3125365 L38.6242881,32.4998141 L31.7494408,32.4998141 L31.7486108,30.3125365 Z M36.1248659,40.3126428 C36.1248659,40.8314438 35.706493,41.2498167 35.1876919,41.2498167 C34.6688908,41.2498167 34.250518,40.8314438 34.250518,40.3126428 L34.250518,37.1873838 C34.250518,36.6685827 34.6688908,36.2502098 35.1876919,36.2502098 C35.706493,36.2502098 36.1248659,36.6685827 36.1248659,37.1873838 L36.1248659,40.3126428 Z" id="Shape"></path>
                </g>
            </g>
        </g>
    </g>
</svg>