<?xml version="1.0" encoding="UTF-8"?>
<svg width="20px" height="15px" viewBox="0 0 20 15" version="1.1" xmlns="http://www.w3.org/2000/svg" xmlns:xlink="http://www.w3.org/1999/xlink">
    <!-- Generator: sketchtool 58 (101010) - https://sketch.com -->
    <title>C2B08A6D-27F7-43FB-83EA-5F51CC9AA315</title>
    <desc>Created with sketchtool.</desc>
    <g id="Web" stroke="none" stroke-width="1" fill="none" fill-rule="evenodd">
        <g id="Sign-Up" transform="translate(-190.000000, -526.000000)" fill="#6648CD" fill-rule="nonzero">
            <g id="Form" transform="translate(165.000000, 465.000000)">
                <g id="Email" transform="translate(0.000000, 34.000000)">
                    <path d="M26.3968958,27 C26.214098,27 26.040408,27.047325 25.8803237,27.1262019 L33.9851131,35.671875 C34.3397849,36.0459808 34.7354091,36.0459808 35.0909889,35.671875 L43.2032284,27.1172596 C43.045896,27.0417635 42.8740033,27 42.6939435,27 L26.3968958,27 Z M25.014551,28.4783654 C25.0054567,28.5594952 25,28.6462587 25,28.7307692 L25,40.2692308 C25,41.2281346 25.622969,42 26.3968958,42 L42.6940133,42 C43.4679401,42 44.0909091,41.2281346 44.0909091,40.2692308 L44.0909091,28.7307692 C44.0909091,28.6462587 44.0854524,28.5594952 44.0763581,28.4783654 L36.0004379,36.9879808 C35.1628359,37.8702692 33.9123581,37.8713942 33.0758038,36.9879808 L25.014551,28.4783654 Z" id="Icon"></path>
                </g>
            </g>
        </g>
    </g>
</svg>