<?xml version="1.0" encoding="UTF-8"?>
<svg width="31px" height="60px" viewBox="0 0 31 60" version="1.1" xmlns="http://www.w3.org/2000/svg" xmlns:xlink="http://www.w3.org/1999/xlink">
    <!-- Generator: sketchtool 58 (101010) - https://sketch.com -->
    <title>67113CA3-54C0-40D4-9604-EB8B115112BF</title>
    <desc>Created with sketchtool.</desc>
    <g id="Web" stroke="none" stroke-width="1" fill-rule="evenodd">
        <g id="Sign-Up" transform="translate(-165.000000, -38.000000)">
            <g id="Title" transform="translate(165.000000, 38.000000)">
                <g id="Logo">
                    <path d="M8.0194388,48.1009779 L8.0194388,56.7062534 C8.0194388,58.463013 6.59530373,59.8871481 4.83854408,59.8871481 C3.08178444,59.8871481 1.65764936,58.463013 1.65764936,56.7062534 L1.65764936,32.8433922 C1.65764936,31.1096131 3.06315501,29.7041075 4.79693408,29.7041075 C5.8049442,29.7041075 6.75164152,30.1881499 7.34184195,31.0053083 L11.5108767,36.7775198 C12.5203176,38.1751351 13.600778,39.5200563 14.7479999,40.8069834 L17.5789468,43.9826745 C18.5370104,45.0574082 20.1849183,45.151988 21.259652,44.1939243 C21.8145302,43.6992822 22.131859,42.991291 22.131859,42.2479468 L22.131859,31.2590956 C22.131859,29.5023359 23.5559941,28.0782009 25.3127538,28.0782009 C27.0695134,28.0782009 28.4936485,29.5023359 28.4936485,31.2590956 L28.4936485,57.446456 C28.4936485,58.7192978 27.4618063,59.7511399 26.1889645,59.7511399 C25.438498,59.7511399 24.7350276,59.3857433 24.3034682,58.7717754 C21.2507586,54.4988752 19.4656541,52.0642794 18.9481547,51.4679882 L14.0663634,45.8429205 C12.8192727,44.4059542 10.6434146,44.2520296 9.20644833,45.4991203 C8.45248672,46.1534561 8.0194388,47.1026726 8.0194388,48.1009779 Z" id="N"></path>
                    <path d="M20.0918535,4.82207007 C20.0918535,10.4422279 18.1383242,15.7773052 14.6319897,20.2164153 L10.5746597,18.0579489 C13.5800893,14.2704513 15.1328946,9.70916381 15.1328946,4.82207007 C15.1328946,-0.0242978816 13.5299988,-4.5041338 10.5746597,-8.29163145 L14.6319897,-10.4500978 C18.0882337,-6.01098771 20.0918535,-0.798087723 20.0918535,4.82207007 Z" id="Shape" opacity="0.300000012" transform="translate(15.333257, 4.883159) rotate(-90.000000) translate(-15.333257, -4.883159) "></path>
                    <path d="M19.0343875,15.4158163 L19.0343875,15.3738142 C19.0343875,18.6919842 17.825855,21.8421457 15.8619896,24.4462792 L11.6321257,22.2201651 C13.1427914,20.2460639 13.9988352,17.8519412 13.9988352,15.3738142 C13.9988352,12.8956871 13.1427914,10.669573 11.6321257,8.69547181 L15.8619896,6.4693577 C17.8762105,9.11549334 19.0343875,12.0976462 19.0343875,15.4158163 Z" id="Path" transform="translate(15.333257, 15.457818) rotate(-90.000000) translate(-15.333257, -15.457818) "></path>
                </g>
            </g>
        </g>
    </g>
</svg>